<!DOCTYPE svg PUBLIC "-//W3C//DTD SVG 20010904//EN" "http://www.w3.org/TR/2001/REC-SVG-20010904/DTD/svg10.dtd">
<svg version="1.0" xmlns="http://www.w3.org/2000/svg" width="250px" height="250px" viewBox="0 0 2500 2500" preserveAspectRatio="xMidYMid meet">
<g id="layer101" fill="#0e0e0e" stroke="none">
 <path d="M1023 2218 c27 -23 28 -25 25 -117 l-3 -94 -80 2 c-43 1 -83 5 -87 7 -4 3 -8 36 -8 74 0 63 2 70 28 90 23 18 24 19 3 10 -19 -10 -25 -9 -32 1 -8 12 -10 12 -18 0 -7 -10 -13 -11 -32 -1 -21 9 -20 8 4 -10 25 -20 27 -27 27 -96 0 -51 -4 -76 -12 -78 -7 -2 -52 -8 -99 -13 -209 -23 -344 -149 -418 -388 -50 -159 -76 -486 -52 -653 9 -65 7 -67 -110 -77 -48 -4 -92 -10 -98 -14 -7 -5 17 -20 59 -39 38 -17 70 -35 70 -39 0 -5 -27 -33 -61 -62 -33 -29 -58 -55 -56 -58 3 -2 57 9 121 26 82 20 118 26 121 18 2 -7 13 -46 25 -87 31 -107 75 -183 140 -243 102 -95 240 -147 390 -147 106 0 181 18 288 71 155 76 232 184 236 329 1 60 -5 78 -76 245 -100 237 -119 299 -125 418 -7 128 7 167 90 242 88 80 154 110 242 110 151 -1 210 -63 490 -509 72 -115 107 -146 163 -146 84 0 151 68 201 205 29 82 64 230 75 320 5 44 2 39 -28 -47 -78 -225 -172 -358 -254 -358 -32 0 -67 50 -146 206 -141 280 -252 427 -394 520 -67 44 -281 116 -437 147 l-120 23 -3 94 c-3 92 -2 94 25 117 26 22 26 23 3 12 -18 -9 -25 -9 -28 0 -3 9 -7 9 -17 1 -10 -8 -20 -8 -37 0 -19 10 -18 8 5 -12z"/>
 </g>
<g id="layer102" fill="#9a2d2d" stroke="none">
 <path d="M770 1998 c-41 -4 -93 -12 -115 -19 -160 -46 -271 -171 -334 -374 -50 -159 -76 -486 -52 -653 9 -65 7 -67 -110 -77 -48 -4 -92 -10 -98 -14 -7 -5 17 -20 59 -39 38 -17 70 -35 70 -39 0 -5 -27 -33 -61 -62 -33 -29 -58 -55 -56 -58 3 -2 57 9 121 26 82 20 118 26 121 18 2 -7 13 -46 25 -87 31 -107 75 -183 140 -243 102 -95 240 -147 390 -147 106 0 181 18 288 71 155 76 232 184 236 329 1 60 -5 78 -76 245 -100 237 -119 299 -125 418 -7 128 7 167 90 242 88 80 154 110 242 110 151 -1 210 -63 490 -509 72 -115 107 -146 163 -146 84 0 151 68 201 205 29 82 64 230 75 320 5 44 2 39 -28 -47 -78 -225 -172 -358 -254 -358 -32 0 -67 50 -146 206 -141 280 -252 427 -394 520 -102 68 -551 193 -560 157 -5 -18 -22 -17 -22 1 0 12 -19 15 -102 13 -57 0 -137 -4 -178 -9z m28 -1364 c4 -25 -22 -49 -43 -40 -22 8 -29 34 -14 52 17 21 53 14 57 -12z m-352 -115 c10 -17 -23 -46 -37 -32 -7 7 -9 19 -6 27 7 18 33 21 43 5z"/>
 </g>
<g id="layer103" fill="#686767" stroke="none">
 <path d="M770 1998 c-41 -4 -93 -12 -115 -19 -160 -46 -271 -171 -334 -374 -50 -159 -76 -486 -52 -653 9 -65 7 -67 -110 -77 -48 -4 -92 -10 -98 -14 -7 -5 17 -20 59 -39 38 -17 70 -35 70 -39 0 -5 -27 -33 -61 -62 -33 -29 -58 -55 -56 -58 3 -2 57 9 121 26 82 20 118 26 121 18 2 -7 13 -46 25 -87 31 -107 75 -183 140 -243 102 -95 240 -147 390 -147 106 0 181 18 288 71 155 76 232 184 236 329 1 60 -5 78 -76 245 -100 237 -119 299 -125 418 -7 128 7 167 90 242 88 80 154 110 242 110 151 -1 210 -63 490 -509 72 -115 107 -146 163 -146 84 0 151 68 201 205 29 82 64 230 75 320 5 44 2 39 -28 -47 -78 -225 -172 -358 -254 -358 -32 0 -67 50 -146 206 -141 280 -252 427 -394 520 -100 66 -516 184 -545 155 -16 -16 -47 -14 -54 5 -5 13 -22 15 -97 12 -50 -1 -125 -6 -166 -10z m575 -287 c0 -7 -24 -21 -55 -30 -87 -27 -102 -39 -43 -34 28 3 53 1 57 -5 3 -5 -22 -26 -57 -46 -34 -21 -115 -84 -180 -141 -166 -146 -227 -172 -280 -117 -37 39 -57 93 -57 158 0 111 80 183 245 219 83 19 370 16 370 -4z m-549 -1078 c1 -27 -20 -47 -41 -39 -39 14 -22 70 19 64 14 -2 21 -11 22 -25z m-359 -140 c-12 -12 -20 -14 -28 -6 -7 7 -5 15 7 27 12 12 20 14 27 7 8 -8 6 -16 -6 -28z"/>
 </g>
<g id="layer104" fill="#997e7e" stroke="none">
 <path d="M1072 2040 c0 -19 2 -27 5 -17 2 9 2 25 0 35 -3 9 -5 1 -5 -18z"/>
 <path d="M840 2013 c0 -8 -14 -13 -37 -13 -236 0 -402 -137 -482 -395 -50 -159 -76 -486 -52 -653 9 -65 7 -67 -110 -77 -48 -4 -92 -10 -98 -14 -7 -5 17 -20 59 -39 38 -17 70 -35 70 -39 0 -5 -27 -33 -61 -62 -33 -29 -58 -55 -56 -58 3 -2 57 9 121 26 82 20 118 26 121 18 2 -7 13 -46 25 -87 31 -107 75 -183 140 -243 102 -95 240 -147 390 -147 106 0 181 18 288 71 155 76 232 184 236 329 1 60 -5 78 -76 245 -100 237 -119 299 -125 418 -7 128 7 167 90 242 88 80 154 110 242 110 151 -1 210 -63 490 -509 72 -115 107 -146 163 -146 84 0 151 68 201 205 29 82 64 230 75 320 5 44 2 39 -28 -47 -78 -225 -172 -358 -254 -358 -32 0 -67 50 -146 206 -141 280 -252 427 -394 520 -100 66 -516 184 -545 155 -15 -15 -44 -14 -54 3 -10 17 -161 27 -167 11 -3 -6 -9 -3 -15 5 -7 10 -11 11 -11 3z m505 -302 c0 -7 -24 -21 -55 -30 -87 -27 -102 -39 -43 -34 28 3 53 1 57 -5 3 -5 -22 -26 -57 -46 -34 -21 -115 -84 -180 -141 -166 -146 -227 -172 -280 -117 -37 39 -57 93 -57 158 0 111 80 183 245 219 83 19 370 16 370 -4z m-552 -1069 c-2 -7 2 -12 9 -12 6 0 2 -9 -11 -21 -12 -11 -29 -18 -37 -15 -20 8 -28 34 -15 50 14 16 57 15 54 -2z m-353 -118 c11 -12 10 -18 -3 -32 -16 -15 -18 -15 -34 0 -13 14 -14 20 -3 32 7 9 16 16 20 16 4 0 13 -7 20 -16z"/>
 </g>
<g id="layer105" fill="#fe5b5b" stroke="none">
 <path d="M850 2014 c-107 -9 -204 -27 -245 -44 -107 -46 -201 -144 -256 -266 -76 -168 -120 -531 -88 -736 9 -55 8 -72 -2 -78 -7 -5 -51 -11 -99 -15 -48 -4 -92 -10 -99 -14 -7 -5 16 -20 59 -39 38 -17 70 -35 70 -39 0 -5 -27 -33 -61 -62 -33 -29 -58 -55 -56 -58 3 -2 56 9 120 25 l114 29 13 -56 c24 -111 73 -204 145 -276 103 -104 250 -164 402 -165 64 0 198 24 217 39 6 5 22 12 36 16 43 13 136 73 180 117 54 54 86 118 97 195 11 72 1 122 -47 228 -43 97 -45 102 -73 175 -80 209 -100 348 -64 441 23 61 108 141 189 179 85 40 151 41 234 1 91 -43 146 -112 338 -423 53 -86 109 -166 124 -177 124 -88 256 29 322 284 22 83 64 355 56 362 -2 3 -7 -11 -11 -29 -11 -54 -92 -290 -112 -328 -37 -69 -71 -116 -108 -148 -30 -27 -44 -33 -73 -30 -37 3 -37 3 -120 163 -135 263 -219 384 -338 494 -78 71 -162 115 -309 160 -123 39 -319 75 -323 61 -5 -14 -39 -13 -44 1 -4 12 -111 19 -188 13z m490 -301 c0 -5 -26 -16 -58 -25 -59 -18 -161 -75 -112 -63 14 3 50 8 80 11 l55 6 -62 -38 c-34 -22 -114 -85 -178 -141 -160 -140 -227 -170 -273 -120 -53 57 -70 181 -32 242 35 57 104 96 215 120 64 14 365 20 365 8z m-535 -1073 c11 -18 -15 -51 -37 -48 -34 5 -45 33 -24 57 18 20 45 16 61 -9z m-365 -116 c11 -12 10 -18 -3 -32 -16 -15 -18 -15 -34 0 -13 14 -14 20 -3 32 7 9 16 16 20 16 4 0 13 -7 20 -16z"/>
 </g>
<g id="layer106" fill="#a2a1a1" stroke="none">
 <path d="M1040 2107 l5 -102 3 94 c1 52 -1 98 -5 102 -4 5 -6 -38 -3 -94z"/>
 <path d="M1073 2130 c0 -36 2 -50 4 -32 2 17 2 47 0 65 -2 17 -4 3 -4 -33z"/>
 <path d="M840 2092 l5 -77 3 69 c2 38 -1 73 -5 77 -4 4 -6 -27 -3 -69z"/>
 <path d="M877 2163 c-10 -9 -9 -141 1 -146 4 -3 7 30 7 74 0 43 0 79 -1 79 0 0 -4 -3 -7 -7z"/>
 <path d="M783 891 c-115 -53 -135 -224 -38 -310 39 -34 85 -46 155 -39 173 17 215 270 58 347 -55 26 -119 27 -175 2z m-3 -236 c4 3 14 -2 21 -11 10 -12 10 -17 0 -23 -7 -5 -12 -12 -12 -17 2 -16 -41 -10 -52 7 -7 12 -5 21 9 35 10 11 21 16 22 12 2 -5 7 -6 12 -3z"/>
 <path d="M158 875 c-53 -6 -99 -13 -103 -16 -3 -3 26 -20 65 -37 38 -17 70 -35 70 -39 0 -5 -27 -33 -61 -62 -33 -29 -58 -55 -56 -58 6 -6 238 54 247 64 4 4 6 42 3 84 l-5 77 -32 -1 c-17 -1 -75 -6 -128 -12z"/>
 <path d="M430 617 c-29 -15 -53 -58 -44 -81 5 -13 9 -14 21 -5 11 10 17 9 30 -4 14 -14 14 -17 -1 -32 -23 -23 -21 -25 23 -25 54 0 83 26 83 74 0 63 -59 101 -112 73z"/>
 </g>
<g id="layer107" fill="#ffd531" stroke="none">
 <path d="M783 891 c-115 -53 -135 -224 -38 -310 39 -34 85 -46 155 -39 173 17 215 270 58 347 -55 26 -119 27 -175 2z m13 -242 c20 -23 11 -51 -20 -57 -36 -7 -60 40 -34 66 17 17 32 15 54 -9z"/>
 <path d="M275 894 c-11 -2 -74 -8 -139 -15 l-120 -12 80 -40 c43 -21 81 -41 84 -44 3 -2 -29 -35 -70 -73 l-75 -69 147 38 c81 20 149 39 152 42 2 2 2 43 -1 92 -6 92 -4 89 -58 81z"/>
 <path d="M430 617 c-29 -15 -53 -58 -44 -81 5 -13 9 -14 20 -5 11 9 18 8 29 -1 20 -17 19 -37 -2 -49 -14 -8 -10 -10 23 -11 57 0 86 25 86 74 0 63 -59 101 -112 73z"/>
 </g>
<g id="layer108" fill="#fffefd" stroke="none">
 <path d="M1193 1325 c0 -22 2 -30 4 -17 2 12 2 30 0 40 -3 9 -5 -1 -4 -23z"/>
 <path d="M783 901 c-82 -38 -130 -145 -104 -233 16 -51 73 -114 118 -129 19 -6 62 -9 94 -7 46 3 66 10 96 34 83 67 104 186 47 266 -57 81 -161 109 -251 69z m7 -256 c17 -20 5 -45 -20 -45 -23 0 -35 22 -26 45 7 19 30 19 46 0z"/>
 <path d="M435 631 c-35 -15 -57 -48 -59 -90 -1 -24 2 -37 8 -34 5 4 7 -1 3 -11 -4 -9 -3 -15 2 -12 5 3 14 -1 21 -9 19 -23 84 -19 115 8 69 59 -6 183 -90 148z m3 -124 c2 -10 -3 -17 -12 -17 -18 0 -29 16 -21 31 9 14 29 6 33 -14z"/>
 </g>

</svg>